<svg xmlns="http://www.w3.org/2000/svg" width="100" height="100" viewBox="0 0 100 100">
    <defs>
        <clipPath id="3gyla">
            <path fill="#fff" d="M50-.001c27.614 0 50 22.386 50 50s-22.386 50-50 50-50-22.386-50-50 22.386-50 50-50z"/>
        </clipPath>
    </defs>
    <g>
        <g>
            <path fill="none" stroke="#363636" stroke-linecap="round" stroke-linejoin="round" stroke-miterlimit="50" stroke-width="2"
                  d="M50-.001c27.614 0 50 22.386 50 50s-22.386 50-50 50-50-22.386-50-50 22.386-50 50-50z" clip-path="url(&quot;#3gyla&quot;)"/>
        </g>
        <g>
            <path d="M70.599 47.755v4.23c0 .543 0 .747-5.373 2.839l-.18.07-.755 1.798.09.19c2.409 5.088 2.249 5.246 1.865 5.63l-3.056 3a.815.815 0 0 1-.536.208c-.461 0-2.238-.652-5.283-1.945l-.177-.072-1.85.751-.073.192c-1.965 5.274-2.188 5.274-2.73 5.274h-4.305c-.527 0-.745 0-2.863-5.26l-.072-.186-1.86-.755-.18.085c-4.504 2.046-5.022 2.046-5.192 2.046a.836.836 0 0 1-.537-.211l-3.043-2.989c-.389-.389-.534-.529 1.751-5.732l.081-.184-.756-1.8-.192-.068c-5.375-1.934-5.375-2.16-5.375-2.703V47.93c0-.542 0-.744 5.364-2.825l.185-.072.756-1.805-.088-.19c-2.405-5.092-2.245-5.252-1.858-5.635l3.051-2.993a.817.817 0 0 1 .533-.209c.464 0 2.243.654 5.29 1.944l.177.074 1.847-.756.074-.192c1.963-5.27 2.202-5.27 2.727-5.27h4.305c.526 0 .743 0 2.86 5.26l.075.186 1.856.75.18-.081c4.503-2.046 5.022-2.046 5.193-2.046.189 0 .408.087.533.211l3.048 2.985c.379.377.537.532-1.75 5.733l-.081.185.754 1.807.194.07c5.376 1.926 5.376 2.15 5.376 2.694zM57.273 49.96c0-3.783-3.13-6.86-6.975-6.86-3.846 0-6.976 3.077-6.976 6.86 0 3.785 3.13 6.866 6.976 6.866 3.845 0 6.975-3.082 6.975-6.866z"/>
            <path fill="#636363"
                  d="M70.599 47.755v4.23c0 .543 0 .747-5.373 2.839l-.18.07-.755 1.798.09.19c2.409 5.088 2.249 5.246 1.865 5.63l-3.056 3a.815.815 0 0 1-.536.208c-.461 0-2.238-.652-5.283-1.945l-.177-.072-1.85.751-.073.192c-1.965 5.274-2.188 5.274-2.73 5.274h-4.305c-.527 0-.745 0-2.863-5.26l-.072-.186-1.86-.755-.18.085c-4.504 2.046-5.022 2.046-5.192 2.046a.836.836 0 0 1-.537-.211l-3.043-2.989c-.389-.389-.534-.529 1.751-5.732l.081-.184-.756-1.8-.192-.068c-5.375-1.934-5.375-2.16-5.375-2.703V47.93c0-.542 0-.744 5.364-2.825l.185-.072.756-1.805-.088-.19c-2.405-5.092-2.245-5.252-1.858-5.635l3.051-2.993a.817.817 0 0 1 .533-.209c.464 0 2.243.654 5.29 1.944l.177.074 1.847-.756.074-.192c1.963-5.27 2.202-5.27 2.727-5.27h4.305c.526 0 .743 0 2.86 5.26l.075.186 1.856.75.18-.081c4.503-2.046 5.022-2.046 5.193-2.046.189 0 .408.087.533.211l3.048 2.985c.379.377.537.532-1.75 5.733l-.081.185.754 1.807.194.07c5.376 1.926 5.376 2.15 5.376 2.694zM57.273 49.96c0-3.783-3.13-6.86-6.975-6.86-3.846 0-6.976 3.077-6.976 6.86 0 3.785 3.13 6.866 6.976 6.866 3.845 0 6.975-3.082 6.975-6.866z"/>
        </g>
    </g>
</svg>