<svg xmlns="http://www.w3.org/2000/svg" width="100" height="100" viewBox="0 0 100 100">
    <defs>
        <clipPath id="9vfra">
            <path fill="#" d="M50-.001c27.614 0 50 22.386 50 50s-22.386 50-50 50-50-22.386-50-50 22.386-50 50-50z"/>
        </clipPath>
    </defs>
    <g>
        <g>
            <path fill="none" stroke="#363636" stroke-linecap="round" stroke-linejoin="round" stroke-miterlimit="50" stroke-width="2"
                  d="M50-.001c27.614 0 50 22.386 50 50s-22.386 50-50 50-50-22.386-50-50 22.386-50 50-50z" clip-path="url(&quot;#9vfra&quot;)"/>
        </g>
        <g>
            <path d="M60.214 30.398s-3.253 3.129-6.77 4.39c-26.046 9.345-15.061 27.553-14.703 27.613 0 0 1.46-2.522 3.434-3.961 12.52-9.128 15.064-19.636 15.064-19.636s-2.81 12.644-13.948 20.511c-2.46 1.737-4.125 6.013-4.83 10.286 0 0 1.743-.698 2.493-.887.293-1.893.904-3.705 1.938-5.324 15.567 1.838 20.665-10.602 21.331-14.94 1.571-10.246-4.01-18.052-4.01-18.052z"/>
            <path
                  d="M60.214 30.398s-3.253 3.129-6.77 4.39c-26.046 9.345-15.061 27.553-14.703 27.613 0 0 1.46-2.522 3.434-3.961 12.52-9.128 15.064-19.636 15.064-19.636s-2.81 12.644-13.948 20.511c-2.46 1.737-4.125 6.013-4.83 10.286 0 0 1.743-.698 2.493-.887.293-1.893.904-3.705 1.938-5.324 15.567 1.838 20.665-10.602 21.331-14.94 1.571-10.246-4.01-18.052-4.01-18.052z"/>
        </g>
    </g>
</svg>