<svg xmlns="http://www.w3.org/2000/svg" width="42" height="42" viewBox="0 0 42 42"><g><g><path fill="#fff" d="M21 0C32.598 0 42 9.4 42 20.998c0 11.598-9.402 21-21 21S0 32.597 0 21s9.402-21 21-21z"/><path fill="#e5493a" d="M21 0C32.598 0 42 9.4 42 20.998c0 11.598-9.402 21-21 21S0 32.597 0 21s9.402-21 21-21z"/></g><g><path d="M26.967 21.202l-2.57 2.57a3.633 3.633 0 0 1-5.14 0 3.597 3.597 0 0 1-.552-.733l1.195-1.195c.056-.056.127-.09.194-.128.082.282.226.55.448.771.709.71 1.862.708 2.57 0l2.569-2.569a1.819 1.819 0 0 0 0-2.57 1.82 1.82 0 0 0-2.57 0l-.913.915a4.557 4.557 0 0 0-2.318-.253l1.947-1.947a3.635 3.635 0 0 1 5.14 5.14zM22.49 25.68l-1.948 1.947a3.635 3.635 0 0 1-5.14-5.14l2.57-2.569a3.633 3.633 0 0 1 5.14 0c.223.223.399.473.551.733l-1.194 1.193c-.057.057-.126.09-.193.128a1.798 1.798 0 0 0-.45-.77 1.819 1.819 0 0 0-2.569 0l-2.57 2.57a1.82 1.82 0 0 0 0 2.57 1.82 1.82 0 0 0 2.57 0l.915-.914c.74.288 1.54.366 2.318.252z"/><path fill="#fff" d="M26.967 21.202l-2.57 2.57a3.633 3.633 0 0 1-5.14 0 3.597 3.597 0 0 1-.552-.733l1.195-1.195c.056-.056.127-.09.194-.128.082.282.226.55.448.771.709.71 1.862.708 2.57 0l2.569-2.569a1.819 1.819 0 0 0 0-2.57 1.82 1.82 0 0 0-2.57 0l-.913.915a4.557 4.557 0 0 0-2.318-.253l1.947-1.947a3.635 3.635 0 0 1 5.14 5.14zM22.49 25.68l-1.948 1.947a3.635 3.635 0 0 1-5.14-5.14l2.57-2.569a3.633 3.633 0 0 1 5.14 0c.223.223.399.473.551.733l-1.194 1.193c-.057.057-.126.09-.193.128a1.798 1.798 0 0 0-.45-.77 1.819 1.819 0 0 0-2.569 0l-2.57 2.57a1.82 1.82 0 0 0 0 2.57 1.82 1.82 0 0 0 2.57 0l.915-.914c.74.288 1.54.366 2.318.252z"/></g></g></svg>