<svg xmlns="http://www.w3.org/2000/svg" width="42" height="42" viewBox="0 0 42 42">
    <g>
        <g>
            <path fill="#fff" d="M21 0C32.598 0 42 9.4 42 20.998c0 11.598-9.402 21-21 21S0 32.597 0 21s9.402-21 21-21z"/>
            <path fill="#252525" d="M21 0C32.598 0 42 9.4 42 20.998c0 11.598-9.402 21-21 21S0 32.597 0 21s9.402-21 21-21z"/>
        </g>
        <g>
            <path d="M27.278 27.235a1 1 0 0 1-.31.733 1 1 0 0 1-.732.31.967.967 0 0 1-.734-.31l-2.794-2.786a5.577 5.577 0 0 1-3.25 1.01c-.778 0-1.52-.15-2.23-.452a5.733 5.733 0 0 1-1.832-1.222 5.734 5.734 0 0 1-1.223-1.833 5.636 5.636 0 0 1-.452-2.229c0-.777.151-1.52.452-2.228a5.733 5.733 0 0 1 1.223-1.833 5.74 5.74 0 0 1 1.833-1.223 5.644 5.644 0 0 1 2.228-.452c.777 0 1.52.151 2.229.452a5.74 5.74 0 0 1 1.833 1.223c.513.513.92 1.124 1.222 1.833.301.709.452 1.451.452 2.228a5.578 5.578 0 0 1-1.01 3.25l2.794 2.795a.998.998 0 0 1 .301.734zm-4.17-6.779c0-1.005-.358-1.864-1.072-2.578-.715-.715-1.574-1.072-2.579-1.072-1.005 0-1.864.357-2.579 1.072-.714.714-1.071 1.573-1.071 2.578s.357 1.864 1.071 2.579c.715.714 1.574 1.07 2.58 1.07 1.004 0 1.863-.356 2.578-1.07.714-.715 1.071-1.574 1.071-2.579z"/>
            <path fill="#fff"
                  d="M27.278 27.235a1 1 0 0 1-.31.733 1 1 0 0 1-.732.31.967.967 0 0 1-.734-.31l-2.794-2.786a5.577 5.577 0 0 1-3.25 1.01c-.778 0-1.52-.15-2.23-.452a5.733 5.733 0 0 1-1.832-1.222 5.734 5.734 0 0 1-1.223-1.833 5.636 5.636 0 0 1-.452-2.229c0-.777.151-1.52.452-2.228a5.733 5.733 0 0 1 1.223-1.833 5.74 5.74 0 0 1 1.833-1.223 5.644 5.644 0 0 1 2.228-.452c.777 0 1.52.151 2.229.452a5.74 5.74 0 0 1 1.833 1.223c.513.513.92 1.124 1.222 1.833.301.709.452 1.451.452 2.228a5.578 5.578 0 0 1-1.01 3.25l2.794 2.795a.998.998 0 0 1 .301.734zm-4.17-6.779c0-1.005-.358-1.864-1.072-2.578-.715-.715-1.574-1.072-2.579-1.072-1.005 0-1.864.357-2.579 1.072-.714.714-1.071 1.573-1.071 2.578s.357 1.864 1.071 2.579c.715.714 1.574 1.07 2.58 1.07 1.004 0 1.863-.356 2.578-1.07.714-.715 1.071-1.574 1.071-2.579z"/>
        </g>
    </g>
</svg>