<svg xmlns="http://www.w3.org/2000/svg" width="100" height="100" viewBox="0 0 100 100">
    <defs>
        <clipPath id="h726a">
            <path fill="#fff" d="M50-.001c27.614 0 50 22.386 50 50s-22.386 50-50 50-50-22.386-50-50 22.386-50 50-50z"/>
        </clipPath>
    </defs>
    <g>
        <g>
            <path fill="none" stroke="#e5493a" stroke-linecap="round" stroke-linejoin="round" stroke-miterlimit="50" stroke-width="4"
                  d="M50-.001c27.614 0 50 22.386 50 50s-22.386 50-50 50-50-22.386-50-50 22.386-50 50-50z" clip-path="url(&quot;#h726a&quot;)"/>
        </g>
        <g>
            <path d="M70.549 50.03c0 2.124-2.372 3.849-2.997 5.765-.645 1.986.235 4.766-.97 6.418-1.219 1.669-4.15 1.687-5.823 2.902-1.657 1.202-2.574 3.985-4.564 4.63-1.92.622-4.292-1.072-6.421-1.072-2.13 0-4.5 1.694-6.421 1.072-1.99-.645-2.907-3.428-4.564-4.63-1.674-1.216-4.604-1.233-5.822-2.902-1.207-1.653-.327-4.434-.972-6.42C31.371 53.878 29 52.155 29 50.032c0-2.124 2.371-3.848 2.995-5.762.646-1.987-.234-4.767.972-6.42 1.218-1.669 4.148-1.686 5.821-2.902 1.658-1.203 2.574-3.985 4.565-4.629 1.92-.622 4.293 1.07 6.421 1.07 2.13 0 4.501-1.692 6.421-1.07 1.99.644 2.907 3.426 4.564 4.629 1.673 1.216 4.605 1.233 5.823 2.903 1.206 1.652.326 4.432.97 6.419.625 1.915 2.996 3.638 2.998 5.762zm-6.199 0c0-8.017-6.539-14.54-14.577-14.54s-14.577 6.523-14.577 14.54c0 8.02 6.539 14.542 14.577 14.542S64.35 58.05 64.35 50.03zm-2.38 0c0 6.71-5.471 12.168-12.197 12.168-6.726 0-12.197-5.458-12.197-12.167s5.471-12.166 12.197-12.166c6.726 0 12.197 5.457 12.197 12.166zm-3.844-2.22a.737.737 0 0 0-.652-.506l-5.119-.33-1.898-4.754a.736.736 0 0 0-1.367 0l-1.897 4.754-5.119.33a.736.736 0 0 0-.652.506.73.73 0 0 0 .23.791l3.946 3.27-1.267 4.958a.732.732 0 0 0 .28.775.74.74 0 0 0 .826.027l4.336-2.734 4.337 2.734a.735.735 0 1 0 1.106-.802l-1.267-4.958 3.947-3.27a.736.736 0 0 0 .23-.79z"/>
            <path fill="#e5493a"
                  d="M70.549 50.03c0 2.124-2.372 3.849-2.997 5.765-.645 1.986.235 4.766-.97 6.418-1.219 1.669-4.15 1.687-5.823 2.902-1.657 1.202-2.574 3.985-4.564 4.63-1.92.622-4.292-1.072-6.421-1.072-2.13 0-4.5 1.694-6.421 1.072-1.99-.645-2.907-3.428-4.564-4.63-1.674-1.216-4.604-1.233-5.822-2.902-1.207-1.653-.327-4.434-.972-6.42C31.371 53.878 29 52.155 29 50.032c0-2.124 2.371-3.848 2.995-5.762.646-1.987-.234-4.767.972-6.42 1.218-1.669 4.148-1.686 5.821-2.902 1.658-1.203 2.574-3.985 4.565-4.629 1.92-.622 4.293 1.07 6.421 1.07 2.13 0 4.501-1.692 6.421-1.07 1.99.644 2.907 3.426 4.564 4.629 1.673 1.216 4.605 1.233 5.823 2.903 1.206 1.652.326 4.432.97 6.419.625 1.915 2.996 3.638 2.998 5.762zm-6.199 0c0-8.017-6.539-14.54-14.577-14.54s-14.577 6.523-14.577 14.54c0 8.02 6.539 14.542 14.577 14.542S64.35 58.05 64.35 50.03zm-2.38 0c0 6.71-5.471 12.168-12.197 12.168-6.726 0-12.197-5.458-12.197-12.167s5.471-12.166 12.197-12.166c6.726 0 12.197 5.457 12.197 12.166zm-3.844-2.22a.737.737 0 0 0-.652-.506l-5.119-.33-1.898-4.754a.736.736 0 0 0-1.367 0l-1.897 4.754-5.119.33a.736.736 0 0 0-.652.506.73.73 0 0 0 .23.791l3.946 3.27-1.267 4.958a.732.732 0 0 0 .28.775.74.74 0 0 0 .826.027l4.336-2.734 4.337 2.734a.735.735 0 1 0 1.106-.802l-1.267-4.958 3.947-3.27a.736.736 0 0 0 .23-.79z"/>
        </g>
    </g>
</svg>